<?xml version="1.0" encoding="utf-8"?>
<!-- Generator: Adobe Illustrator 16.0.3, SVG Export Plug-In . SVG Version: 6.00 Build 0)  -->
<!DOCTYPE svg PUBLIC "-//W3C//DTD SVG 1.1//EN" "http://www.w3.org/Graphics/SVG/1.1/DTD/svg11.dtd">
<svg version="1.1" id="Layer_1" xmlns="http://www.w3.org/2000/svg" xmlns:xlink="http://www.w3.org/1999/xlink" x="0px" y="0px"
	 width="367.47px" height="387.952px" viewBox="0 0 367.47 387.952" enable-background="new 0 0 367.47 387.952"
	 xml:space="preserve">
<text transform="matrix(1 0 0 1 47.4062 128.8843)"><tspan x="0" y="0" fill="#262262" font-family="'Arista2.0Light'" font-size="117.0378" letter-spacing="2">T</tspan><tspan x="60.04" y="0" fill="#58595B" font-family="'Arista2.0Light'" font-size="117.0378" letter-spacing="2">esla</tspan><tspan x="4.681" y="100" fill="#1C75BC" font-family="'Arista2.0Light'" font-size="117.0378">W</tspan><tspan x="91.172" y="100" fill="#58595B" font-family="'Arista2.0Light'" font-size="117.0378">ave</tspan><tspan x="14.747" y="200" fill="#27AAE1" font-family="'Arista2.0Light'" font-size="117.0378" letter-spacing="11">P</tspan><tspan x="81.926" y="200" fill="#6D6E71" font-family="'Arista2.0Light'" font-size="117.0378" letter-spacing="11">ool</tspan></text>
<linearGradient id="SVGID_1_" gradientUnits="userSpaceOnUse" x1="104.5352" y1="113.5942" x2="352.4026" y2="361.4617">
	<stop  offset="0" style="stop-color:#262262"/>
	<stop  offset="1" style="stop-color:#27AAE1"/>
</linearGradient>
<path fill="url(#SVGID_1_)" d="M339.76,347.06c0,6.627-5.373,12-12,12H42.121c-6.627,0-12-5.373-12-12V40.939
	c0-6.627,5.373-12,12-12H327.76c6.627,0,12,5.373,12,12V347.06z M360.209,20.723c0-7.503-6.083-13.585-13.585-13.585H23.256
	c-7.503,0-13.585,6.082-13.585,13.585v346.554c0,7.502,6.082,13.585,13.585,13.585h323.368c7.502,0,13.585-6.083,13.585-13.585
	V20.723z"/>
</svg>
